<?xml version="1.0" encoding="UTF-8" standalone="no"?>
<!-- Created with Inkscape (http://www.inkscape.org/) -->

<svg
   width="16"
   height="16"
   viewBox="0 0 16 16"
   version="1.1"
   id="svg1"
   xmlns="http://www.w3.org/2000/svg"
   xmlns:svg="http://www.w3.org/2000/svg">
  <defs
     id="defs1" />
  <g
     id="layer1">
    <path
       d="M 15.563901,10.947261 14.144673,10.22684 15.23854,9.9663778 c 0.46567,-0.110899 0.740625,-0.531751 0.614126,-0.94 -0.126495,-0.408249 -0.606541,-0.649299 -1.072212,-0.5384 v 0 l -2.764468,0.658305 -2.2716589,-1.153145 2.2489289,-1.1416006 2.78721,0.6637096 c 0.46567,0.110898 0.945716,-0.1301511 1.072214,-0.5384006 0.126497,-0.4082488 -0.148456,-0.8291008 -0.614127,-0.9399999 v 0 L 14.121955,5.7709726 15.563912,5.0390083 C 15.981516,4.827035 16.124043,4.3584071 15.882257,3.992298 15.640468,3.6261881 15.105926,3.5012361 14.688322,3.7132089 L 13.262306,4.4370808 13.561702,3.4704409 C 13.688144,3.0621918 13.413145,2.6413792 12.947474,2.5305293 12.481803,2.4196794 12.001801,2.6607696 11.875361,3.0690184 v 0 L 11.113642,5.5277861 8.8743121,6.6644972 V 4.3850623 L 10.91198,2.5834817 C 11.251729,2.2831029 11.249395,1.7981399 10.90678,1.5002859 10.564153,1.202432 10.010978,1.2044789 9.6712311,1.5048559 v 0 L 8.8743141,2.2094071 V 0.7675719 C 8.8753141,0.3445462 8.4849921,8.933e-4 8.0024661,1.7e-6 c -0.482525,-8.909e-4 -0.874513,0.3413157 -0.875531,0.7643412 -2e-6,0.00108 -2e-6,0.00215 0,0.00323 v 1.441833 L 6.3300341,1.5048555 c -0.339117,-0.3009258 -0.892286,-0.3038645 -1.235538,-0.00656 -0.343251,0.2973007 -0.346604,0.7822591 -0.0075,1.0831846 7.55e-4,6.737e-4 0.0015,0.00133 0.0023,0.00201 l 2.037648,1.8015817 v 2.27944 L 4.8876141,5.5277925 4.1258971,3.0690196 C 4.0000551,2.6606302 3.5204111,2.4190004 3.0545811,2.5293242 2.5887501,2.639648 2.3131351,3.0601484 2.4389761,3.4685374 c 1.95e-4,6.4e-4 3.92e-4,0.00126 5.9e-4,0.0019 L 2.7389621,4.4370822 1.3129455,3.7132103 C 0.895342,3.5012369 0.3608001,3.6261892 0.1190127,3.9922985 -0.1227747,4.358408 0.0197527,4.8270359 0.437356,5.0390088 L 1.8793141,5.7709733 0.7627168,6.036847 C 0.2970468,6.1477459 0.0220926,6.5685981 0.1485896,6.9768469 0.2750868,7.3850963 0.755133,7.6261458 1.2208032,7.5152468 l 2.7872039,-0.6637084 2.248929,1.1416004 -2.271665,1.153144 -2.7644804,-0.658297 c -0.46567,-0.110899 -0.9457164,0.13015 -1.0722134,0.5384 -0.126497,0.408248 0.1484572,0.829101 0.6141274,0.94 l 1.0938664,0.2604622 -1.4192272,0.720421 c -0.418006,0.211364 -0.5614226,0.679784 -0.3203302,1.046247 0.2410925,0.366461 0.7753971,0.492194 1.1934032,0.280831 8.396e-4,-4.21e-4 0.00168,-8.59e-4 0.00252,-0.0013 l 1.4322542,-0.727041 -0.305629,0.986765 c -0.126998,0.408114 0.147426,0.829213 0.612942,0.940551 0.465517,0.111337 0.945844,-0.129248 1.072842,-0.537363 1.83e-4,-5.89e-4 3.65e-4,-0.0012 5.47e-4,-0.0018 l 0.767952,-2.478879 2.233089,-1.1335612 v 2.2963952 l -2.037653,1.801579 c -0.339747,0.300379 -0.337413,0.785343 0.0052,1.083196 0.342627,0.297854 0.895802,0.295807 1.23555,-0.0046 v 0 l 0.796902,-0.704549 v 1.441833 c 0.001,0.423025 0.393005,0.765233 0.87553,0.764341 0.481088,-8.92e-4 0.870834,-0.342575 0.871848,-0.764341 v -1.441831 l 0.796901,0.704548 c 0.3390749,0.300961 0.8922439,0.303961 1.2355379,0.0067 0.343292,-0.297265 0.346713,-0.782223 0.0076,-1.083184 -8.04e-4,-7.08e-4 -0.0016,-0.0014 -0.0024,-0.0021 L 8.8743201,11.618128 V 9.3217308 l 2.2330879,1.1335622 0.767953,2.478878 c 0.12644,0.408249 0.606442,0.649338 1.072113,0.538488 0.465671,-0.110849 0.74067,-0.531663 0.614228,-0.939912 v 0 l -0.30563,-0.986765 1.432256,0.727042 c 0.417603,0.211973 0.952144,0.08702 1.193932,-0.279089 0.241788,-0.366109 0.09926,-0.834737 -0.318343,-1.04671 v 0 z"
       id="path1"
       style="fill:#ffffff;stroke-width:0.179876" />
  </g>
</svg>
